# xmcd
#
# Track frame offsets: 
#        150
#        16363
#        32605
#        50306
#        67452
#        69683
#        84948
#        100894
#
# Disc length: 1578 seconds
#
# Revision: 0
# Processed by: cddbd v1.5.2PL0 Copyright (c) Steve Scherf et al.
# Submitted via: ExactAudioCopy v0.99pb3
#
DISCID=67062808
DTITLE=Billy Cowsill - From the Crystal BallRoom
DYEAR=1985
DGENRE=Country
TTITLE0=I'm Movin On
TTITLE1=(Let Me Be Your) Teddy Bear
TTITLE2=Lets Dance
TTITLE3=Only You (And You Alone)
TTITLE4=Band Intro
TTITLE5=Pull Over Beethoven
TTITLE6=The Race Is On
TTITLE7=Heart Full of Soul
EXTD=
EXTT0=
EXTT1=
EXTT2=
EXTT3=
EXTT4=
EXTT5=
EXTT6=
EXTT7=
PLAYORDER=
